<?xml version="1.0" encoding="utf-8"?>
<!-- Generator: Adobe Illustrator 28.1.0, SVG Export Plug-In . SVG Version: 6.00 Build 0)  -->
<svg version="1.1" id="cross" xmlns="http://www.w3.org/2000/svg" xmlns:xlink="http://www.w3.org/1999/xlink" x="0px"
    y="0px" viewBox="0 0 32 32" style="enable-background:new 0 0 32 32;" xml:space="preserve">
    <style>
        path {
            fill: white;
        }
    </style>
    <g>
        <path d="M27.6,23.3c0.6,0.6,0.9,1.3,0.9,2.2s-0.3,1.6-0.9,2.2c-0.6,0.6-1.3,0.9-2.2,0.9c-0.9,0-1.6-0.3-2.2-0.9L16,20.3l-7.3,7.3
		c-0.5,0.5-1.3,0.8-2.2,0.8c-0.8,0-1.6-0.3-2.1-0.8c-0.6-0.6-0.9-1.4-0.9-2.2c0-0.9,0.3-1.6,0.9-2.2l7.3-7.3L4.4,8.7
		C3.8,8.2,3.5,7.4,3.5,6.5c0-0.8,0.3-1.6,0.9-2.2C5,3.8,5.8,3.4,6.6,3.4c0.8,0,1.5,0.3,2,0.8l7.3,7.3l7.3-7.3
		c0.5-0.5,1.3-0.8,2.2-0.8c0.8,0,1.6,0.3,2.1,0.8c0.6,0.6,0.9,1.4,0.9,2.2c0,0.8-0.3,1.6-0.9,2.2L20.3,16L27.6,23.3z" />
    </g>
</svg>