<?xml version="1.0" encoding="utf-8"?>
<!-- Generator: Adobe Illustrator 28.1.0, SVG Export Plug-In . SVG Version: 6.00 Build 0)  -->
<svg version="1.1" id="profile" xmlns="http://www.w3.org/2000/svg" xmlns:xlink="http://www.w3.org/1999/xlink" x="0px" y="0px"
	 viewBox="0 0 33.1 33.1" style="enable-background:new 0 0 33.1 33.1;" xml:space="preserve">
<style type="text/css">
	.st0{fill:#FFFFFF;}
</style>
<g>
	<path class="st0" d="M26.4,10.4c0,3.3-2.5,6.1-5.7,6.6c1-1.4,1.7-3.2,1.7-5.1c0-3.5-2-6.5-5-7.9c0.7-0.3,1.5-0.4,2.3-0.4
		C23.4,3.6,26.4,6.6,26.4,10.4z"/>
	<path class="st0" d="M30.5,23.8c0,0.1,0,0.2,0,0.4c-0.1,1.4-1.4,2.3-2.6,2.8c-0.6,0.2-1.2,0.4-1.9,0.5c0.2-0.5,0.3-1,0.4-1.5
		c0-0.2,0-0.4,0-0.6c-0.1-1.4-0.7-2.8-1.8-3.6c-1.3-1.1-2.8-1.5-3.9-1.7c-0.1,0-0.2-0.1-0.4-0.1c0.8,0,1.6,0,2.4,0
		c1.2,0.1,2.4,0.2,3.6,0.5c1.1,0.2,2.1,0.6,3,1.3C30.1,22.2,30.5,23,30.5,23.8z"/>
	<path class="st0" d="M20.3,11.9c0,2.3-1.3,4.5-3.2,5.7c-2.3,1.4-5.4,1.3-7.6-0.2c-1.8-1.2-2.9-3.3-2.9-5.5C6.6,9.5,8,7.3,10,6.1
		c2.4-1.4,5.4-1.2,7.5,0.4c1.5,1.1,2.5,2.8,2.7,4.6C20.3,11.4,20.3,11.7,20.3,11.9z"/>
	<path class="st0" d="M24.4,25.4c0,0.9-0.4,1.8-1.2,2.4c-1.3,1-3.2,1.2-4.8,1.4c-3.4,0.4-6.9,0.4-10.3,0C7.1,29,6,28.8,5,28.4
		c-0.6-0.2-1.2-0.6-1.7-1.1c-0.8-0.9-1-2.2-0.5-3.3c0.5-1,1.6-1.5,2.6-1.9c1-0.4,2.2-0.6,3.3-0.7c1.5-0.1,2.9-0.1,4.4-0.1
		c2.4,0,4.9,0,7.3,0.5c1.1,0.2,2.1,0.6,3,1.3C24.1,23.8,24.4,24.6,24.4,25.4z"/>
</g>
</svg>
