<?xml version="1.0" encoding="utf-8"?>
<!-- Generator: Adobe Illustrator 28.1.0, SVG Export Plug-In . SVG Version: 6.00 Build 0)  -->
<svg version="1.1" id="profile" xmlns="http://www.w3.org/2000/svg" xmlns:xlink="http://www.w3.org/1999/xlink" x="0px" y="0px"
	 viewBox="0 0 24 24" style="enable-background:new 0 0 24 24;" xml:space="preserve">
<style type="text/css">
	.st0{fill:#F1A513;}
	.st1{fill:#1FC9EA;}
</style>
<g>
	<ellipse class="st0" cx="12" cy="6.7" rx="6.7" ry="6.6"/>
	<path class="st1" d="M22.7,19.9L22.7,19.9c0-0.1,0-0.2,0-0.3c0-0.3-0.1-0.7-0.3-1c-0.6-1.3-2.5-1.8-4-2.2c-1.1-0.2-2.2-0.4-3.3-0.4
		L13.9,16h-0.5h-0.6h-1.6h-0.6H10L8.9,16c-1.1,0.1-2.2,0.2-3.3,0.4c-1.5,0.3-3.3,0.9-4,2.2c-0.2,0.3-0.3,0.7-0.3,1
		c0,0.1,0,0.2,0,0.3l0,0c0,0.1,0,0.2,0,0.3c0,0.3,0.1,0.7,0.3,1c0.6,1.3,2.5,1.8,4,2.2c1.1,0.2,2.2,0.4,3.3,0.4l1.2,0.1h0.3h0.2h2.9
		h0.2H14l1.2-0.1c1.1-0.1,2.2-0.2,3.3-0.4c1.5-0.3,3.3-0.9,4-2.2c0.2-0.3,0.3-0.7,0.3-1C22.7,20.1,22.7,20,22.7,19.9z"/>
</g>
</svg>
