<?xml version="1.0" encoding="utf-8"?>
<!-- Generator: Adobe Illustrator 28.1.0, SVG Export Plug-In . SVG Version: 6.00 Build 0)  -->
<svg version="1.1" id="Layer_2" xmlns="http://www.w3.org/2000/svg" xmlns:xlink="http://www.w3.org/1999/xlink" x="0px" y="0px"
	 viewBox="0 0 1000 1000" style="enable-background:new 0 0 1000 1000;" xml:space="preserve">
<style type="text/css">
	.st0{fill:#FFFFFF;}
</style>
<path class="st0" d="M751,500c0,67-26.1,130.1-73.5,177.5c-12.9,13-27.1,24.3-42.1,34c-1.1,0.7-2.2,1.4-3.4,2.1l-42.7-67.8
	c1.1-0.7,2.3-1.4,3.4-2.1C639.8,613.1,671,560.1,671,500c0-60.4-31.4-113.5-78.8-144c-1.1-0.7-2.2-1.4-3.4-2.1l42.4-68
	c1.1,0.7,2.3,1.4,3.4,2.1c15.3,9.8,29.7,21.3,42.8,34.4C724.9,369.9,751,433,751,500z"/>
<path class="st0" d="M408.4,646.5c0.4,2-0.6,4.6-3.1,9.1c-4.6,8.1-9.9,15.9-14.9,23.9c-7.2,11.5-14.4,23-21.6,34.5
	c-1.1-0.7-2.3-1.4-3.4-2.1c-15.3-9.8-29.7-21.3-42.8-34.5C275.1,630.1,249,567,249,500s26.1-130.1,73.5-177.5
	c12.9-12.9,27.1-24.3,42.1-34c1.1-0.7,2.2-1.4,3.4-2.1l42.7,67.8c-1.1,0.7-2.3,1.4-3.4,2.1C360.2,386.8,329,439.8,329,500
	c0,52.9,26.1,105.1,68.9,137C404.2,641.8,407.8,643.5,408.4,646.5z"/>
<path class="st0" d="M911,500c0,55.5-10.9,109.3-32.3,160c-20.7,49-50.3,92.9-88.1,130.6c-21.4,21.4-44.9,40.2-70.1,56.3
	c-1.1,0.7-2.3,1.4-3.4,2.1l-42.7-67.9c1.1-0.7,2.3-1.4,3.4-2.1c92-58.8,153.2-162,153.2-279c0-117.5-61.5-220.9-154.1-279.7
	c-1.1-0.7-2.2-1.4-3.4-2.1l42.5-68c1.1,0.7,2.3,1.4,3.4,2.1c25.7,16.2,49.5,35.3,71.3,57.1c37.7,37.7,67.4,81.7,88.1,130.6
	C900.1,390.7,911,444.5,911,500z"/>
<path class="st0" d="M326.5,781.8l-42.5,68c-1.1-0.7-2.3-1.4-3.4-2.1c-25.7-16.2-49.5-35.3-71.3-57c-37.7-37.7-67.4-81.7-88.1-130.6
	C99.9,609.3,89,555.5,89,500c0-55.5,10.9-109.3,32.3-160c20.7-49,50.3-92.9,88.1-130.6c10.9-10.9,22.9-21.4,35.2-31.1
	c12.2-9.6,24.8-19.7,38.3-27.4c7.4,12.5,15.5,24.7,23.3,37c6.5,10.3,12.9,20.6,19.4,30.8c-1.1,0.7-2.3,1.4-3.4,2.1
	C230.1,279.8,169,382.9,169,500c0,117.5,61.5,220.9,154.1,279.6C324.2,780.4,325.4,781.1,326.5,781.8z"/>
<path class="st0" d="M578.2,500c0.6,23.2-8.4,46.6-29.5,63c-44.3,34.5-113.1,10.6-126.4-44.2C410.4,469.9,450,420,500,420
	C546.7,420,577.1,459.6,578.2,500z"/>
</svg>
