<?xml version="1.0" encoding="utf-8"?>
<!-- Generator: Adobe Illustrator 28.1.0, SVG Export Plug-In . SVG Version: 6.00 Build 0)  -->
<svg version="1.1" id="Layer_2_00000047741667455170997410000007026328342765591979_"
	 xmlns="http://www.w3.org/2000/svg" xmlns:xlink="http://www.w3.org/1999/xlink" x="0px" y="0px" viewBox="0 0 1000 1000"
	 style="enable-background:new 0 0 1000 1000;" xml:space="preserve">
<style type="text/css">
	.st0{fill:#FFFFFF;}
</style>
<path class="st0" d="M813.5,458v83H865c17.1,0,31,13.9,31,31s-13.9,31-31,31h-51.5v84H865c17.1,0,31,13.9,31,31s-13.9,31-31,31h-54
	c0,34.2-27.8,62-62,62v54c0,17.1-13.9,31-31,31s-31-13.9-31-31v-52h-84v52c0,17.1-13.9,31-31,31s-31-13.9-31-31v-85
	c0-17.1,13.9-31,31-31h115c34.2,0,62-27.8,62-62V312c0-34.2-27.8-62-62-62H541v-1c-17.1,0-31-13.9-31-31s13.9-31,31-31v-52
	c0-17.1,13.9-31,31-31s31,13.9,31,31v52h84v-52c0-17.1,13.9-31,31-31s31,13.9,31,31v53c34.2,0,62,27.8,62,62h54
	c17.1,0,31,13.9,31,31s-13.9,31-31,31h-51.5v84H865c17.1,0,31,13.9,31,31s-13.9,31-31,31H813.5z"/>
<path class="st0" d="M489,780c0,17.1-13.9,31-31,31v54c0,17.1-13.9,31-31,31s-31-13.9-31-31v-52h-84v52c0,17.1-13.9,31-31,31
	s-31-13.9-31-31v-53c-34.2,0-62-27.8-62-62c0-0.3,0-0.7,0-1h-53c-17.1,0-31-13.9-31-31s13.9-31,31-31h52.5v-84H135
	c-17.1,0-31-13.9-31-31s13.9-31,31-31h52.5v-83H135c-17.1,0-31-13.9-31-31s13.9-31,31-31h52.5v-84H135c-17.1,0-31-13.9-31-31
	s13.9-31,31-31h53c0-34.2,27.8-62,62-62v-53c0-17.1,13.9-31,31-31s31,13.9,31,31v52h84v-52c0-17.1,13.9-31,31-31s31,13.9,31,31v84
	c0,17.1-13.9,31-31,31H312c-34.2,0-62,27.8-62,62v366.6c-0.3,2.6-0.5,5.2-0.5,7.9c0,0.2,0,0.3,0,0.5c0,0.3,0,0.7,0,1
	c0,2.2,0.2,4.3,0.5,6.4c3.9,30.5,29.9,54.1,61.5,54.1c0.2,0,0.3,0,0.5,0c0,0.2,0,0.3,0,0.5c0,0.3,0,0.7,0,1v-1h146
	C475.1,749,489,762.9,489,780z"/>
<path class="st0" d="M645,385v229c0,17.1-13.9,31-31,31H386c-17.1,0-31-13.9-31-31v-73c0-17.1,13.9-31,31-31c3.5,0,6.9,0.6,10,1.6
	c12.2,4.2,21,15.7,21,29.4v42h166V416H417v34c0,2.8-0.4,5.5-1,8c-2.7,10-10.2,18-20,21.3c-3.1,1.1-6.5,1.7-10,1.7
	c-14.3,0-26.4-9.8-30-23c-0.7-2.5-1-5.2-1-8v-65c0-17.1,13.9-31,31-31h228C631.1,354,645,367.9,645,385z"/>
</svg>
